Coordinates
version=1
nRows=16
nColumns=36
inDegrees=yes

Units are S.I. units (second, meters, Newtons, ...)
If the header above contains a line with 'inDegrees', this indicates whether rotational values are in degrees (yes) or radians (no).

endheader
time	pelvis_tilt	pelvis_list	pelvis_rotation	pelvis_tx	pelvis_ty	pelvis_tz	hip_flexion_r	hip_adduction_r	hip_rotation_r	knee_angle_r	knee_angle_r_beta	ankle_angle_r	subtalar_angle_r	mtp_angle_r	hip_flexion_l	hip_adduction_l	hip_rotation_l	knee_angle_l	knee_angle_l_beta	ankle_angle_l	subtalar_angle_l	mtp_angle_l	lumbar_extension	lumbar_bending	lumbar_rotation	arm_flex_r	arm_add_r	arm_rot_r	elbow_flex_r	pro_sup_r	arm_flex_l	arm_add_l	arm_rot_l	elbow_flex_l	pro_sup_l
      2.43333330	     13.93287640	     -3.70947636	      3.12990649	      0.00524653	      0.74688480	      0.00298476	     30.89038250	     -2.73040965	     -4.76855699	     14.96329032	      0.26115868	     -6.54278495	    -12.96402687	     -7.49999987	     13.30407011	      3.58267424	      5.51708681	     51.55582278	      0.89981886	     26.54018623	    -20.43378876	     -7.49999987	    -25.73080140	      0.90023179	     -2.80035240	     54.49707742	     20.30914005	     70.07744304	    125.48310429	    103.17257520	     34.84840149	     15.92414586	     48.09323584	    138.08840817	     93.60235205
      2.45000000	     14.04759109	     -3.59260894	      3.06671562	      0.00669801	      0.74544725	      0.00333538	     30.54896113	     -2.85864452	     -4.86017395	     14.25945881	      0.24887451	     -6.98566121	    -13.18550523	     -7.49999987	     13.41779351	      3.81362077	      5.47318762	     52.13188509	      0.90987304	     26.76083121	    -20.85476195	     -7.49999987	    -26.29878127	      0.70616926	     -2.63664977	     54.74024366	     20.48810264	     70.15681038	    125.23825728	    103.07092717	     34.65562969	     15.98227884	     48.91173443	    138.49084576	     93.48644908
      2.46666670	     14.20510803	     -3.48866074	      3.12786704	      0.00546589	      0.74319648	      0.00250355	     30.47633972	     -2.97168330	     -4.87569819	     14.15891928	      0.24711976	     -7.72765618	    -13.07421734	     -7.49999987	     13.36123275	      4.06603433	      5.61434400	     52.37896423	      0.91418538	     27.43360673	    -20.87337978	     -7.49999987	    -26.75013561	      0.61496031	     -2.37944195	     55.12503110	     20.34572770	     69.86594730	    125.06841986	    102.75478880	     34.70300735	     15.96648742	     48.81953160	    138.23885409	     93.46725604
      2.48333330	     14.09934701	     -3.09483310	      3.09827271	      0.00710065	      0.74111179	      0.00288397	     30.73583588	     -3.41959841	     -5.23478224	     14.02099745	      0.24471257	     -8.60136794	    -13.05848034	     -7.49999987	     13.55877294	      4.63632235	      5.68127448	     52.71882400	      0.92011706	     28.04942662	    -21.28104127	     -7.49999987	    -26.83100037	      0.18249249	     -2.18913601	     55.31667272	     20.32072451	     69.88346024	    124.89750947	    102.21326601	     34.39029748	     16.08444846	     49.13878392	    138.11105606	     92.90127370
      2.50000000	     14.43402257	     -3.04217548	      3.24180993	      0.00719373	      0.74100118	      0.00274998	     30.55014865	     -3.43046104	     -5.05869634	     14.00032726	      0.24435181	     -9.16823008	    -13.45552907	     -7.49999987	     13.26601809	      4.79747892	      5.94936959	     52.99331468	      0.92490782	     28.34995180	    -21.40687056	     -7.49999987	    -27.49511838	      0.17857783	     -2.13692505	     55.78065370	     20.53228628	     70.04464228	    124.73786053	    102.22586917	     35.20823099	     15.89407977	     49.66252041	    137.86870895	     92.93858439
      2.51666670	     14.29944292	     -2.59287563	      3.47018615	      0.00708953	      0.74089949	      0.00306062	     30.48219731	     -4.00222153	     -5.47510407	     13.32901360	      0.23263517	     -9.89431688	    -13.59707098	     -7.49999987	     13.41986652	      5.44950565	      6.25273619	     53.12203641	      0.92715444	     27.82017158	    -22.06881804	     -7.49999987	    -27.65702247	     -0.23675927	     -2.45312314	     55.56830020	     20.58923615	     70.20764464	    124.89087692	    101.59715142	     35.69872590	     15.53234868	     48.53105555	    137.59361958	     92.03843341
      2.53333330	     14.47989984	     -2.47250687	      3.46871020	      0.00968040	      0.74095564	      0.00297313	     29.97009026	     -4.07167943	     -5.41543203	     13.20055410	      0.23039313	    -10.39519550	    -13.83761237	     -7.49999987	     13.03811237	      5.61186088	      6.36384770	     53.03664052	      0.92566400	     27.90161985	    -22.27628301	     -7.49999987	    -27.84928236	     -0.31956323	     -2.16426928	     55.39855606	     20.50401768	     69.70635483	    124.76148743	    105.07517300	     35.92924648	     15.53574339	     48.35918430	    137.29968719	     96.60280097
      2.55000000	     14.42388947	     -2.45446323	      3.69637266	      0.01052355	      0.73992919	      0.00312010	     29.77615645	     -4.11073482	     -5.25070487	     13.28574702	      0.23188003	    -10.44924014	    -13.33237349	     -7.49999987	     12.83253450	      5.72706055	      6.65707479	     52.91730426	      0.92358119	     28.33890509	    -22.15655949	     -7.49999987	    -27.78249714	     -0.24208224	     -1.85975679	     55.44140166	     20.56336421	     69.90596913	    124.71161157	    103.94637699	     35.78521819	     15.69140824	     49.28520249	    137.63821753	     95.72379647
      2.56666670	     14.24348246	     -2.69760310	      3.64948799	      0.01432443	      0.73766537	      0.00350613	     29.75864522	     -3.80894600	     -4.68421226	     13.74116060	      0.23982850	    -10.56012272	    -13.29877882	     -7.49999987	     12.54912496	      5.45522757	      6.87472659	     52.84438755	      0.92230855	     28.84485168	    -22.31519465	     -7.49999987	    -27.52944096	      0.05128095	     -1.50648248	     55.22096058	     20.75128700	     70.42124438	    124.85737823	    103.48416830	     35.20732558	     15.68685178	     50.27409728	    138.02326681	     95.21282553
      2.58333330	     14.04317409	     -2.40072923	      3.97097682	      0.00975847	      0.74071639	      0.00219248	     29.71719362	     -4.21837050	     -4.21969679	     14.21248862	      0.24805472	    -10.62917570	    -13.19767346	     -7.49999987	     12.82176739	      5.92471191	      6.95479188	     52.55645222	      0.91728313	     29.07139935	    -22.09312282	     -7.49999987	    -27.40136497	     -0.05368432	     -1.44940227	     55.22776057	     20.71932170	     70.06225832	    124.72427270	    103.71635382	     35.25122822	     15.60023495	     50.87493613	    138.58821460	     95.56349933
      2.60000000	     13.87078068	     -1.95720906	      4.15787689	      0.01241628	      0.74030455	      0.00271384	     29.74744538	     -4.69205103	     -3.68673823	     14.82925593	      0.25881934	    -10.16698654	    -12.89428907	     -7.49999987	     12.98879635	      6.44570503	      7.00144632	     52.37290821	      0.91407969	     28.75756850	    -22.54558750	     -7.49999987	    -27.37711085	     -0.40259442	     -1.45734741	     55.31379383	     20.68848166	     69.84687919	    124.82354737	    103.01352879	     35.26352104	     15.52859226	     51.26874365	    139.25635214	     94.90460934
      2.61666670	     13.61771066	     -1.45347711	      4.47215506	      0.01311995	      0.73861934	      0.00331645	     29.81098225	     -5.25075599	     -3.39793631	     15.01038186	      0.26198059	     -9.62759880	    -12.34462284	     -7.49999987	     13.28961144	      6.97252534	      6.99937510	     52.30279421	      0.91285597	     28.46159553	    -22.85088403	     -7.49999987	    -27.10253214	     -0.74504980	     -1.38339259	     55.31737056	     20.62569330	     69.35792086	    124.75624007	    102.29978741	     35.51551599	     15.63448466	     51.81901922	    139.74243681	     94.09248710
      2.63333330	     13.35711835	     -0.91417029	      4.74569253	      0.01326819	      0.73730107	      0.00354416	     29.92573258	     -5.82708747	     -3.35300004	     15.01528361	      0.26206614	     -9.48921640	    -11.72073267	     -7.49999987	     13.54595271	      7.59478999	      7.06570776	     52.15198259	      0.91022381	     28.31513306	    -23.04891656	     -7.49999987	    -26.75695787	     -1.22960157	     -1.60185831	     55.50905239	     20.62365465	     68.79823719	    124.96657151	    101.67673267	     35.89022217	     15.60470341	     51.15430132	    139.28349391	     93.36786364
      2.65000000	     13.29831841	     -0.59087420	      4.92163542	      0.01427029	      0.73797475	      0.00472300	     29.52928819	     -6.00528143	     -3.07785252	     14.77332165	      0.25784310	     -9.30272302	    -11.13297757	     -7.49999987	     13.39567718	      7.87609630	      7.26656135	     51.82871000	      0.90458164	     28.46907911	    -23.03049696	     -7.49999987	    -26.57388150	     -1.54369786	     -1.43600884	     55.78640783	     20.53644404	     67.93643783	    125.19836161	    105.07156234	     36.42368710	     15.63653958	     50.42478865	    138.33471286	     96.51252399
      2.66666670	     12.91923414	     -0.17243415	      5.13895291	      0.01630950	      0.73712518	      0.00411908	     29.31715012	     -6.51676041	     -3.43970005	     14.28387172	      0.24930059	     -9.62648042	    -10.93380881	     -7.49999987	     13.31496636	      8.44114886	      7.52294476	     51.35793322	      0.89636503	     28.32788258	    -22.96170622	     -7.49999987	    -25.91724169	     -1.82798458	     -1.52295474	     56.07436542	     20.40270597	     67.60927396	    125.05537667	    103.83159742	     36.75157639	     15.48674954	     49.72459014	    137.44315368	     95.29972807
      2.68333330	     12.77841109	      0.03748008	      5.51699511	      0.01855746	      0.74069361	      0.00506752	     28.48404805	     -6.67638972	     -2.96742881	     13.11595670	      0.22891663	     -9.45438806	    -10.35777987	     -7.49999987	     12.62040735	      8.65600333	      8.06752768	     50.33492756	      0.87851021	     28.34133098	    -22.82784943	     -7.49999987	    -25.61272100	     -1.88651746	     -1.46347065	     56.26382387	     20.55615318	     67.59461319	    125.08887579	    103.32511421	     36.74329014	     15.47851170	     49.45416590	    136.65645505	     94.60089016
